# xmcd
#
# Track frame offsets:
#	150
#	17702
#	32070
#	49007
#	66600
#	82762
#	94187
#	110695
#	125287
#	142947
#	156097
#	170015
#	182907
#
# Disc length: 2589 seconds
#
# Revision: 0
# Processed by: cddbd v1.5.2PL0 Copyright (c) Steve Scherf et al.
# Submitted via: EasyCDDAExtractor 10.0.6.1
#
DISCID=ac0a1b0d
DTITLE=Various Artist - CDX Vol.27 March
DYEAR=1992
DGENRE=Country
TTITLE0=Suzy Bogguss - Aces
TTITLE1=Ricky Van Shelton - Backroads
TTITLE2=Pam Tillis - Blue Rose Is
TTITLE3=Doug Stone - Come In Out Of The Pain
TTITLE4=Lionel Cartwright - Family Tree
TTITLE5=George Jones - Honky Tonk Myself To Death
TTITLE6=Randy Travis - I'd Surrender All
TTITLE7=Dan Seals - Mason Dixon Line
TTITLE8=Travis Tritt - Nothing Short Of Dying
TTITLE9=Garth Brooks - Papa Loved Mama
TTITLE10=Debra Burns - Runawayn Heart
TTITLE11=Confederate Railroad - She Took It Like A Man
TTITLE12=Live 'N Kicking - You Don't Need To Knock
EXTD=
EXTT0=
EXTT1=
EXTT2=
EXTT3=
EXTT4=
EXTT5=
EXTT6=
EXTT7=
EXTT8=
EXTT9=
EXTT10=
EXTT11=
EXTT12=
PLAYORDER=
